<svg width="24" height="24" viewBox="0 0 24 24" fill="none" xmlns="http://www.w3.org/2000/svg">
	<g clip-path="url(#clip0)">
		<path
			d="M12.0111 0C11.1611 0 10.4719 0.6891 10.4719 1.5392C10.4719 2.3893 11.161 3.0785 12.0111 3.0785C12.6061 3.0785 13.1211 2.7405 13.3773 2.2465C15.5981 3.514 17.2243 7.7193 17.2243 12.6088C17.2243 14.6803 16.9352 16.6648 16.3993 18.3773C16.3867 18.4176 16.3821 18.46 16.3858 18.5021C16.3896 18.5441 16.4016 18.585 16.4212 18.6224C16.4407 18.6599 16.4675 18.6931 16.4999 18.7202C16.5323 18.7472 16.5697 18.7677 16.61 18.7803C16.6915 18.8058 16.7797 18.7978 16.8553 18.7582C16.931 18.7186 16.9878 18.6507 17.0133 18.5692C17.5691 16.7929 17.8675 14.7441 17.8675 12.6088C17.8675 7.4161 16.0958 2.9228 13.5469 1.6061C13.5479 1.5838 13.5504 1.5618 13.5504 1.5392C13.5504 0.6892 12.8613 0 12.0111 0V0ZM12.0111 0.6432C12.2487 0.6432 12.4766 0.7376 12.6447 0.905632C12.8127 1.07366 12.9071 1.30157 12.9071 1.5392C12.9071 1.77683 12.8127 2.00474 12.6447 2.17277C12.4766 2.3408 12.2487 2.4352 12.0111 2.4352C11.7735 2.4352 11.5456 2.3408 11.3775 2.17277C11.2095 2.00474 11.1151 1.77683 11.1151 1.5392C11.1151 1.30157 11.2095 1.07366 11.3775 0.905632C11.5456 0.7376 11.7735 0.6432 12.0111 0.6432V0.6432ZM6.5251 4.9484C4.4581 4.9558 2.8778 5.613 2.1366 6.8969C1.3991 8.1743 1.6099 9.8679 2.6479 11.6782C2.69133 11.7502 2.76123 11.8024 2.84264 11.8235C2.92404 11.8446 3.01047 11.833 3.08343 11.7911C3.15638 11.7493 3.21005 11.6806 3.23294 11.5996C3.25583 11.5187 3.24613 11.4321 3.2059 11.3582C2.271 9.7274 2.089 8.266 2.6938 7.2185C3.5148 5.7965 5.7268 5.2633 8.6259 5.7914C8.66746 5.79897 8.7101 5.79828 8.75139 5.78937C8.79268 5.78046 8.83181 5.76351 8.86655 5.73948C8.90129 5.71545 8.93095 5.68481 8.95385 5.64931C8.97675 5.61382 8.99243 5.57416 9 5.5326C9.00757 5.49104 9.00688 5.4484 8.99797 5.40711C8.98907 5.36582 8.97211 5.32669 8.94808 5.29195C8.92405 5.25721 8.89341 5.22755 8.85791 5.20465C8.82242 5.18175 8.78276 5.16607 8.7412 5.1585C7.9572 5.0157 7.2141 4.946 6.5252 4.9485L6.5251 4.9484ZM17.5773 4.966C17.492 4.96489 17.4098 4.9977 17.3487 5.05722C17.2876 5.11675 17.2526 5.19811 17.2515 5.2834C17.2504 5.36869 17.2832 5.45094 17.3427 5.51204C17.4022 5.57314 17.4836 5.60809 17.5689 5.6092C19.4026 5.6331 20.7245 6.2048 21.3191 7.2348C22.1383 8.6538 21.4989 10.8295 19.6009 13.0718C19.5458 13.137 19.5189 13.2213 19.5259 13.3064C19.533 13.3914 19.5735 13.4701 19.6386 13.5253C19.6708 13.5526 19.7081 13.5733 19.7483 13.5861C19.7886 13.599 19.8309 13.6038 19.873 13.6003C19.9151 13.5968 19.9561 13.5851 19.9936 13.5657C20.0312 13.5464 20.0645 13.5198 20.0918 13.4876C22.1453 11.0616 22.8626 8.6215 21.8763 6.9132C21.1506 5.6562 19.6163 4.9925 17.5773 4.966V4.966ZM14.8789 5.2584C14.8571 5.25861 14.8355 5.26102 14.8142 5.2656C12.9574 5.6635 10.9809 6.4411 9.0828 7.537C4.5129 10.1754 1.4904 14.0318 1.7227 16.9087C1.2501 17.1715 0.929901 17.6751 0.929901 18.2542C0.929901 19.1042 1.6191 19.7934 2.4692 19.7934C3.3192 19.7934 4.0084 19.1043 4.0084 18.2542C4.0084 17.4041 3.3193 16.7149 2.4692 16.7149C2.4312 16.7149 2.3938 16.7179 2.3564 16.7206C2.2562 14.1609 5.0998 10.5794 9.4044 8.0941C11.2457 7.0311 13.1595 6.2778 14.9489 5.8944C15.0265 5.87746 15.0952 5.83237 15.1415 5.76784C15.1879 5.70331 15.2088 5.62389 15.2001 5.5449C15.1914 5.46591 15.1538 5.39293 15.0945 5.34003C15.0352 5.28713 14.9584 5.25805 14.8789 5.2584V5.2584ZM12.0002 11.4948C11.9248 11.4957 11.8496 11.5043 11.7759 11.5203C11.1747 11.6504 10.7929 12.2428 10.9226 12.8441C11.0528 13.4453 11.6452 13.8273 12.2464 13.6974C12.8476 13.5672 13.2296 12.9748 13.0997 12.3736C12.9858 11.8476 12.5181 11.4892 12.0002 11.4948V11.4948ZM4.532 13.341C4.48977 13.339 4.44755 13.3453 4.40777 13.3596C4.36799 13.374 4.33144 13.396 4.3002 13.4245C4.26896 13.4529 4.24362 13.4872 4.22563 13.5254C4.20765 13.5636 4.19737 13.605 4.19538 13.6472C4.19339 13.6893 4.19974 13.7315 4.21405 13.7712C4.22837 13.811 4.25037 13.8475 4.2788 13.8787C5.547 15.2723 7.1945 16.5797 9.0734 17.6644C13.488 20.2133 18.179 20.9493 20.6342 19.5036C20.8951 19.6922 21.2089 19.7936 21.5308 19.7935C22.3809 19.7935 23.07 19.1044 23.07 18.2543C23.07 17.4042 22.381 16.715 21.5308 16.715C20.6808 16.715 19.9916 17.4042 19.9916 18.2543C19.9916 18.5303 20.0653 18.7887 20.1926 19.0127C17.9478 20.2267 13.5616 19.5129 9.395 17.1073C7.5722 16.0549 5.977 14.7892 4.7546 13.4459C4.72623 13.4146 4.69197 13.3892 4.65377 13.3712C4.61557 13.3532 4.57419 13.343 4.532 13.341V13.341ZM2.4692 17.3582C2.58687 17.3582 2.70338 17.3814 2.81209 17.4264C2.92079 17.4714 3.01957 17.5374 3.10277 17.6206C3.18597 17.7038 3.25197 17.8026 3.297 17.9113C3.34203 18.02 3.3652 18.1365 3.3652 18.2542C3.3652 18.3719 3.34203 18.4884 3.297 18.5971C3.25197 18.7058 3.18597 18.8046 3.10277 18.8878C3.01957 18.971 2.92079 19.037 2.81209 19.082C2.70338 19.127 2.58687 19.1502 2.4692 19.1502C2.35154 19.1502 2.23502 19.127 2.12632 19.082C2.01761 19.037 1.91883 18.971 1.83563 18.8878C1.75243 18.8046 1.68643 18.7058 1.64141 18.5971C1.59638 18.4884 1.5732 18.3719 1.5732 18.2542C1.5732 18.1365 1.59638 18.02 1.64141 17.9113C1.68643 17.8026 1.75243 17.7038 1.83563 17.6206C1.91883 17.5374 2.01761 17.4714 2.12632 17.4264C2.23502 17.3814 2.35154 17.3582 2.4692 17.3582V17.3582ZM21.5308 17.3582C21.6485 17.3582 21.765 17.3814 21.8737 17.4264C21.9824 17.4714 22.0812 17.5374 22.1644 17.6206C22.2476 17.7038 22.3136 17.8026 22.3586 17.9113C22.4036 18.02 22.4268 18.1365 22.4268 18.2542C22.4268 18.3719 22.4036 18.4884 22.3586 18.5971C22.3136 18.7058 22.2476 18.8046 22.1644 18.8878C22.0812 18.971 21.9824 19.037 21.8737 19.082C21.765 19.127 21.6485 19.1502 21.5308 19.1502C21.3152 19.1504 21.1069 19.0725 20.9444 18.9308C20.9419 18.9268 20.9405 18.9225 20.9378 18.9185C20.9126 18.8817 20.88 18.8506 20.8421 18.8271C20.7333 18.6962 20.664 18.5371 20.6423 18.3683C20.6206 18.1994 20.6475 18.0279 20.7198 17.8738C20.792 17.7197 20.9067 17.5894 21.0503 17.4981C21.1939 17.4068 21.3606 17.3582 21.5308 17.3582V17.3582ZM7.5263 18.7262C7.47329 18.7232 7.42036 18.7334 7.37225 18.7558C7.32414 18.7783 7.28233 18.8123 7.25057 18.8549C7.21881 18.8974 7.19808 18.9472 7.19023 18.9997C7.18238 19.0522 7.18766 19.1058 7.2056 19.1558C8.2793 22.154 10.036 24 12.0111 24C13.4517 24 14.7846 23.0178 15.8239 21.289C15.8457 21.2528 15.8601 21.2127 15.8663 21.1709C15.8726 21.1291 15.8706 21.0865 15.8603 21.0456C15.8501 21.0046 15.8319 20.966 15.8068 20.9321C15.7817 20.8981 15.7501 20.8694 15.7139 20.8477C15.6408 20.8038 15.5532 20.7907 15.4704 20.8113C15.3876 20.832 15.3164 20.8846 15.2724 20.9577C14.3384 22.5114 13.1912 23.3567 12.0111 23.3567C10.3704 23.3567 8.8036 21.7102 7.8111 18.9388C7.78978 18.8793 7.75139 18.8274 7.70074 18.7896C7.65008 18.7518 7.58941 18.7297 7.5263 18.7262V18.7262Z"
			fill="#47848F"
		/>
	</g>
	<defs>
		<clipPath id="clip0">
			<rect width="24" height="24" fill="white" />
		</clipPath>
	</defs>
</svg>
