<svg width="24" height="24" viewBox="0 0 24 24" fill="none" xmlns="http://www.w3.org/2000/svg">
	<g clip-path="url(#clip0)">
		<path d="M12 2L20.6603 7V17L12 22L3.33975 17V7L12 2Z" fill="white" />
		<path
			d="M7.257 9.132L11.816 6.5C11.872 6.4678 11.9354 6.45085 12 6.45085C12.0646 6.45085 12.128 6.4678 12.184 6.5L16.743 9.132C16.7991 9.16449 16.8456 9.21116 16.8779 9.26734C16.9102 9.32351 16.9271 9.3872 16.927 9.452V14.715C16.9268 14.7796 16.9098 14.8431 16.8775 14.899C16.8452 14.955 16.7988 15.0015 16.743 15.034L12.184 17.666C12.128 17.6982 12.0646 17.7151 12 17.7151C11.9354 17.7151 11.872 17.6982 11.816 17.666L7.257 15.034C7.20093 15.0015 7.15441 14.9548 7.12211 14.8987C7.08981 14.8425 7.07287 14.7788 7.073 14.714V9.452C7.07297 9.38722 7.08995 9.32357 7.12224 9.26742C7.15453 9.21126 7.201 9.16456 7.257 9.132V9.132ZM23.852 11.53L18.406 2.055C18.208 1.712 17.842 1.459 17.446 1.459H6.555C6.159 1.459 5.793 1.712 5.595 2.055L0.148997 11.509C0.0519285 11.6791 0.00087738 11.8716 0.00087738 12.0675C0.00087738 12.2634 0.0519285 12.4559 0.148997 12.626L5.596 22.024C5.793 22.366 6.159 22.541 6.555 22.541H17.448C17.843 22.541 18.208 22.371 18.407 22.029L23.853 12.616C23.95 12.4515 24.0012 12.264 24.0012 12.073C24.0012 11.882 23.95 11.6945 23.853 11.53H23.852ZM19.343 16.086C19.3411 16.1552 19.3214 16.2227 19.2856 16.2819C19.2498 16.3412 19.1993 16.3901 19.139 16.424L12.2 20.426C12.1403 20.4601 12.0727 20.4781 12.004 20.4781C11.9352 20.4781 11.8677 20.4601 11.808 20.426L4.865 16.424C4.80448 16.3902 4.75376 16.3413 4.71783 16.2821C4.68189 16.2228 4.66196 16.1553 4.66 16.086V8.08C4.66 7.94 4.743 7.811 4.864 7.742L11.8 3.74C11.92 3.67 12.072 3.67 12.192 3.74L19.135 7.743C19.1957 7.77663 19.2466 7.82547 19.2827 7.88473C19.3189 7.94399 19.3389 8.01163 19.341 8.081L19.343 16.086Z"
			fill="#4B32C3"
		/>
	</g>
	<defs>
		<clipPath id="clip0">
			<rect width="24" height="24" fill="white" />
		</clipPath>
	</defs>
</svg>
