<svg width="24" height="24" viewBox="0 0 24 24" fill="none" xmlns="http://www.w3.org/2000/svg">
	<g clip-path="url(#clip0)">
		<path
			d="M3.89 15.672L6.255 0.460997C6.27196 0.348165 6.3241 0.243564 6.40399 0.162096C6.48388 0.0806284 6.58743 0.0264497 6.69991 0.0072786C6.81239 -0.0118925 6.92805 0.004922 7.03041 0.0553266C7.13277 0.105731 7.21662 0.187155 7.27 0.287997L9.813 5.059L3.89 15.672ZM20.684 19.364L18.434 5.364C18.4186 5.26506 18.3759 5.17236 18.3109 5.09625C18.2458 5.02015 18.1608 4.96364 18.0655 4.93303C17.9702 4.90243 17.8682 4.89893 17.771 4.92294C17.6738 4.94695 17.5851 4.99752 17.515 5.069L3.316 19.365L11.172 23.792C11.4145 23.9282 11.6879 23.9998 11.966 23.9998C12.2441 23.9998 12.5175 23.9282 12.76 23.792L20.684 19.364ZM14.3 7.147L12.48 3.665C12.4341 3.57743 12.3651 3.5041 12.2805 3.45293C12.1959 3.40177 12.0989 3.37472 12 3.37472C11.9011 3.37472 11.8041 3.40177 11.7195 3.45293C11.6349 3.5041 11.5659 3.57743 11.52 3.665L3.53 17.984L14.3 7.147Z"
			fill="#FFCA28"
		/>
	</g>
	<defs>
		<clipPath id="clip0">
			<rect width="24" height="24" fill="white" />
		</clipPath>
	</defs>
</svg>
