<svg width="24" height="24" viewBox="0 0 24 24" fill="none" xmlns="http://www.w3.org/2000/svg">
	<path
		d="M17.182 9.518C15.919 3.958 12.94 2.131 12.62 1.432C12.268 0.939 11.887 0 11.887 0L11.882 0.049V0.062H11.881C11.8792 0.0749507 11.8779 0.0879582 11.877 0.101V0.116H11.875L11.873 0.142V0.168H11.87C11.869 0.176 11.869 0.186 11.867 0.193V0.214H11.865C11.865 0.221 11.865 0.229 11.863 0.235V0.255H11.861L11.859 0.287V0.289L11.849 0.339V0.347H11.848L11.845 0.359V0.376H11.842V0.398H11.837V0.416H11.832V0.437H11.828V0.456H11.824V0.473H11.818V0.487H11.814V0.505H11.81V0.519H11.805V0.532H11.802V0.547H11.798L11.797 0.551V0.561H11.794L11.793 0.567V0.573H11.791C11.7899 0.576245 11.7893 0.5796 11.789 0.583L11.779 0.604V0.606C11.777 0.608081 11.7753 0.610439 11.774 0.613V0.621H11.77V0.629H11.765V0.637H11.762V0.647H11.756V0.661H11.752V0.665H11.748V0.673H11.744V0.684H11.74V0.692H11.734V0.703H11.73V0.711H11.725V0.719H11.722V0.729H11.717V0.737H11.713V0.743H11.709V0.751H11.703V0.76H11.699V0.766H11.694V0.774H11.69V0.785H11.685V0.789H11.682V0.797H11.676V0.801H11.672V0.811H11.668V0.815H11.664V0.823H11.659V0.829H11.656L11.654 0.833V0.837H11.652L11.65 0.841V0.842H11.649C11.6483 0.844637 11.6469 0.847046 11.645 0.849V0.852H11.644L11.632 0.87V0.871L11.622 0.881V0.883L11.619 0.886V0.889H11.617L11.614 0.892V0.893H11.613L11.61 0.897V0.901H11.607L11.605 0.903V0.905H11.603C11.603 0.907 11.601 0.907 11.601 0.908V0.911H11.597L11.595 0.914V0.92H11.592V0.924H11.588V0.93H11.584V0.938H11.579V0.93H11.574V0.934H11.57V0.94H11.565V0.948H11.56V0.952H11.556V0.958H11.552V0.962H11.548V0.97H11.542V0.974H11.538V0.98H11.533V0.984H11.529V0.989H11.524V0.999H11.522V1.003H11.516V1.008H11.512V1.01H11.508V1.014H11.503V1.024H11.499V1.028H11.494V1.032H11.49V1.038H11.485V1.042H11.48V1.046H11.476V1.05H11.472V1.06H11.468V1.065H11.462V1.069H11.458V1.073H11.453V1.079H11.449V1.083H11.444V1.09H11.44V1.094H11.434V1.1H11.432V1.104H11.428V1.108H11.423V1.112H11.419V1.118H11.414V1.122H11.411L11.41 1.124V1.126H11.408L11.404 1.13L11.4 1.133V1.139H11.396V1.144H11.392V1.148H11.388V1.152H11.385L11.382 1.155V1.158H11.38L11.378 1.16V1.163H11.376C11.371 1.169 11.369 1.173 11.362 1.179C11.3438 1.19143 11.3267 1.20549 11.311 1.221L11.289 1.238V1.239H11.288C11.2715 1.25219 11.2548 1.26519 11.238 1.278V1.279L11.165 1.341V1.34H11.163C11.106 1.387 11.046 1.44 10.977 1.499V1.5H10.976C10.806 1.648 10.606 1.838 10.381 2.068L10.366 2.083L10.362 2.087C9.002 3.494 6.859 6.426 6.632 11.164C6.612 11.556 6.617 11.937 6.639 12.308V12.317C6.748 14.184 7.334 15.778 8.067 17.073V17.074C8.359 17.59 8.674 18.059 8.993 18.479V18.48C10.095 19.935 11.22 20.797 11.507 21.006C11.947 22.029 11.907 23.785 11.907 23.785L12.551 24C12.551 24 12.42 22.299 12.604 21.478C12.661 21.221 12.796 21.002 12.953 20.816C13.2316 20.6175 13.4977 20.4021 13.75 20.171C13.768 20.152 13.778 20.135 13.794 20.117C15.314 18.699 18.156 15.207 17.182 9.518V9.518Z"
		fill="#47A248"
	/>
</svg>
