<svg width="24" height="24" viewBox="0 0 24 24" fill="none" xmlns="http://www.w3.org/2000/svg">
	<path
		d="M16.405 5.501C16.29 5.501 16.212 5.515 16.131 5.534V5.547H16.145C16.199 5.651 16.291 5.727 16.359 5.82C16.413 5.927 16.459 6.034 16.513 6.14L16.527 6.125C16.621 6.059 16.667 5.953 16.667 5.792C16.627 5.745 16.621 5.698 16.587 5.652C16.547 5.585 16.461 5.552 16.407 5.499L16.405 5.501ZM5.77 18.695H4.843C4.81693 17.2218 4.72685 15.7504 4.573 14.285H4.565L3.155 18.695H2.45L1.05 14.285H1.04C0.930493 15.7527 0.865464 17.2234 0.845 18.695H0C0.055 16.729 0.192 14.885 0.41 13.165H1.56L2.895 17.229H2.903L4.25 13.165H5.345C5.587 15.18 5.729 17.025 5.773 18.695H5.77ZM9.787 14.615C9.409 16.66 8.911 18.148 8.295 19.075C7.813 19.791 7.285 20.148 6.712 20.148C6.559 20.148 6.372 20.102 6.146 20.01V19.516C6.256 19.533 6.386 19.542 6.532 19.542C6.8 19.542 7.015 19.467 7.179 19.32C7.376 19.14 7.474 18.938 7.474 18.715C7.474 18.56 7.397 18.245 7.244 17.771L6.23 14.615H7.14L7.867 16.975C8.031 17.511 8.1 17.885 8.072 18.098C8.472 17.034 8.75 15.871 8.907 14.615H9.787ZM22.112 18.695H19.482V13.165H20.367V18.015H22.112V18.695ZM18.792 18.83L17.776 18.33C17.866 18.254 17.953 18.172 18.031 18.08C18.464 17.574 18.679 16.822 18.679 15.827C18.679 13.997 17.961 13.081 16.524 13.081C15.82 13.081 15.27 13.313 14.874 13.778C14.444 14.286 14.228 15.034 14.228 16.023C14.228 16.995 14.418 17.709 14.802 18.163C15.152 18.573 15.679 18.778 16.385 18.778C16.649 18.778 16.891 18.745 17.11 18.68L18.435 19.452L18.795 18.83H18.792ZM15.5 17.588C15.275 17.228 15.163 16.648 15.163 15.852C15.163 14.459 15.587 13.762 16.433 13.762C16.876 13.762 17.203 13.929 17.41 14.262C17.634 14.624 17.746 15.198 17.746 15.985C17.746 17.389 17.322 18.093 16.476 18.093C16.031 18.093 15.706 17.926 15.498 17.593L15.5 17.588ZM13.842 17.163C13.842 17.633 13.67 18.019 13.326 18.319C12.982 18.619 12.523 18.769 11.942 18.769C11.399 18.769 10.878 18.597 10.369 18.254L10.606 17.778C11.044 17.998 11.439 18.106 11.796 18.106C12.128 18.106 12.389 18.033 12.579 17.886C12.674 17.8144 12.7506 17.7214 12.8028 17.6145C12.8549 17.5076 12.881 17.3899 12.879 17.271C12.879 16.941 12.649 16.661 12.231 16.426C11.843 16.213 11.068 15.769 11.068 15.769C10.646 15.462 10.436 15.133 10.436 14.592C10.436 14.142 10.593 13.782 10.906 13.507C11.221 13.229 11.626 13.092 12.126 13.092C12.638 13.092 13.106 13.228 13.526 13.502L13.313 13.978C12.9774 13.8306 12.6155 13.7524 12.249 13.748C11.966 13.748 11.747 13.816 11.595 13.954C11.5179 14.0179 11.4557 14.0979 11.4128 14.1885C11.37 14.279 11.3475 14.3778 11.347 14.478C11.347 14.806 11.581 15.088 12.013 15.328C12.406 15.543 13.2 15.998 13.2 15.998C13.633 16.303 13.848 16.628 13.848 17.166L13.842 17.163ZM23.224 11.311C22.689 11.297 22.274 11.351 21.927 11.499C21.827 11.539 21.667 11.539 21.653 11.666C21.708 11.719 21.716 11.806 21.763 11.88C21.843 12.014 21.981 12.193 22.109 12.287C22.249 12.397 22.389 12.503 22.536 12.597C22.796 12.757 23.091 12.852 23.346 13.013C23.491 13.107 23.639 13.226 23.786 13.326C23.859 13.376 23.906 13.466 24 13.498V13.478C23.954 13.418 23.94 13.331 23.895 13.264C23.828 13.197 23.761 13.137 23.695 13.071C23.4987 12.8123 23.2644 12.5847 23 12.396C22.786 12.25 22.318 12.046 22.23 11.801L22.217 11.787C22.363 11.774 22.537 11.721 22.677 11.681C22.904 11.621 23.112 11.634 23.347 11.575C23.453 11.548 23.56 11.515 23.667 11.481V11.421C23.547 11.301 23.457 11.138 23.333 11.026C22.9869 10.7235 22.6178 10.4483 22.229 10.203C22.019 10.069 21.753 9.983 21.532 9.869C21.452 9.829 21.318 9.809 21.272 9.742C21.152 9.596 21.082 9.402 20.997 9.228C20.8006 8.84709 20.6182 8.45916 20.45 8.065C20.33 7.803 20.257 7.542 20.11 7.302C19.42 6.165 18.673 5.476 17.524 4.802C17.277 4.662 16.981 4.602 16.668 4.528C16.501 4.52 16.334 4.508 16.168 4.501C16.058 4.454 15.952 4.327 15.858 4.266C15.478 4.026 14.494 3.506 14.214 4.194C14.034 4.628 14.481 5.056 14.636 5.276C14.751 5.429 14.896 5.604 14.976 5.776C15.023 5.892 15.036 6.011 15.083 6.132C15.189 6.426 15.29 6.754 15.43 7.029C15.503 7.169 15.583 7.316 15.677 7.442C15.731 7.515 15.823 7.549 15.844 7.669C15.75 7.805 15.744 8.003 15.69 8.169C15.45 8.926 15.544 9.862 15.884 10.419C15.991 10.585 16.246 10.953 16.587 10.812C16.887 10.692 16.821 10.312 16.907 9.977C16.927 9.897 16.914 9.844 16.955 9.79V9.805C17.049 9.993 17.143 10.172 17.229 10.36C17.435 10.688 17.795 11.028 18.096 11.255C18.256 11.375 18.383 11.583 18.583 11.657V11.637H18.568C18.525 11.579 18.468 11.551 18.414 11.504C18.2872 11.3799 18.1702 11.2461 18.064 11.104C17.7822 10.719 17.5324 10.3117 17.317 9.886C17.207 9.676 17.115 9.45 17.027 9.243C16.987 9.163 16.987 9.043 16.92 9.003C16.82 9.149 16.673 9.276 16.6 9.456C16.473 9.744 16.46 10.098 16.412 10.466C16.385 10.473 16.398 10.466 16.385 10.48C16.171 10.428 16.098 10.206 16.018 10.02C15.818 9.545 15.785 8.782 15.958 8.235C16.005 8.095 16.205 7.653 16.125 7.519C16.083 7.392 15.951 7.319 15.878 7.216C15.7841 7.08194 15.7037 6.93891 15.638 6.789C15.478 6.415 15.398 6.001 15.224 5.627C15.144 5.454 15.004 5.273 14.89 5.114C14.763 4.934 14.623 4.807 14.522 4.594C14.489 4.521 14.442 4.4 14.495 4.32C14.509 4.266 14.537 4.245 14.589 4.23C14.677 4.158 14.924 4.252 15.011 4.292C15.258 4.392 15.466 4.486 15.673 4.626C15.767 4.692 15.868 4.819 15.988 4.852H16.128C16.342 4.899 16.583 4.866 16.783 4.925C17.138 5.039 17.458 5.205 17.745 5.385C18.6293 5.94991 19.3486 6.73855 19.83 7.671C19.91 7.825 19.945 7.966 20.018 8.126C20.158 8.456 20.331 8.789 20.473 9.108C20.613 9.423 20.748 9.744 20.949 10.005C21.049 10.145 21.451 10.218 21.631 10.291C21.764 10.351 21.971 10.406 22.091 10.479C22.321 10.619 22.545 10.779 22.761 10.933C22.871 11.009 23.204 11.176 23.224 11.311V11.311Z"
		fill="#4479A1"
	/>
</svg>
